<svg xmlns="http://www.w3.org/2000/svg"  viewBox="0 0 50 50" width="50px" height="50px"><path d="M 13 4 C 9.14 4 6 7.14 6 11 L 6 26 L 8 26 L 8 11 C 8 8.24 10.24 6 13 6 L 40 6 C 42.76 6 45 8.24 45 11 L 45 39 C 45 41.76 42.76 44 40 44 L 28.650391 44 C 28.400391 44.75 27.990937 45.43 27.460938 46 L 40 46 C 43.86 46 47 42.86 47 39 L 47 11 C 47 7.14 43.86 4 40 4 L 13 4 z M 7 28 C 4.794 28 3 29.794 3 32 L 3 42 C 3 44.206 4.794 46 7 46 L 23 46 C 25.206 46 27 44.206 27 42 L 27 32 C 27 29.794 25.206 28 23 28 L 7 28 z M 7 30 L 23 30 C 24.103 30 25 30.897 25 32 L 25 42 C 25 43.103 24.103 44 23 44 L 7 44 C 5.897 44 5 43.103 5 42 L 5 32 C 5 30.897 5.897 30 7 30 z"/></svg>